<svg width="994" height="265" viewBox="0 0 994 265" fill="none" xmlns="http://www.w3.org/2000/svg">
<g filter="url(#filter0_d_18_39)">
<path d="M73.2137 67.6118H48.1023V60.3192H70.8745V49.2426H48.1023V42.3628H72.2505V30.9423H34.6867V79.1011H73.2137V67.6118ZM96.4589 38.3037L91.987 30.9423H77.333V31.6991L92.4686 54.8841L76.301 78.5507V79.1011H91.0926L95.4957 72.5652L100.931 63.4839L106.297 72.4276L110.769 79.1011H125.561V78.5507L109.393 54.8841L124.529 31.6991V30.9423H109.875L105.471 38.1661L100.931 46.8347L96.4589 38.3037ZM144.333 42.638H154.103C157.818 42.638 159.813 45.5275 159.813 48.6923C159.813 51.857 157.887 54.6089 154.103 54.6089H144.333V42.638ZM154.103 66.0982C166.968 65.9606 173.435 58.324 173.435 48.4859C173.435 39.0605 167.037 30.9423 154.103 30.9423H130.711V79.1011H144.333V66.0982H154.103ZM218.359 67.6118H193.248V60.3192H216.02V49.2426H193.248V42.3628H217.396V30.9423H179.832V79.1011H218.359V67.6118ZM270.981 78.2755L258.46 62.0391C266.578 58.4616 268.642 53.4393 268.642 47.5227C268.642 38.8541 262.244 30.9423 249.929 30.9423H226.4V79.1011H240.022V63.4839H244.769L255.983 79.1011H270.981V78.2755ZM249.929 41.8124C253.506 41.8124 255.226 44.7708 255.226 47.7979C255.226 50.6874 253.644 53.3705 250.066 53.3705H240.022V41.8124H249.929ZM291.022 79.1011V30.9423H277.469V79.1011H291.022ZM339.654 67.6118H314.542V60.3192H337.314V49.2426H314.542V42.3628H338.69V30.9423H301.127V79.1011H339.654V67.6118ZM359.252 30.9423H347.694V79.1011H361.454V63.6903L361.248 53.1641L381.337 79.1011H392.895V30.9423H379.204V47.4539C379.273 49.3114 379.273 51.513 379.617 57.292L359.252 30.9423ZM438.083 63.8967C434.643 67.4054 429.965 68.7813 426.732 68.7813C417.238 68.7813 413.935 61.6951 413.866 55.4345C413.798 49.1739 417.444 41.606 426.732 41.606C429.965 41.606 433.543 42.5004 436.983 45.8027L445.376 37.547C439.941 32.2495 433.68 29.8416 426.732 29.8416C408.638 29.8416 400.313 42.982 400.382 55.3657C400.451 68.4374 407.812 80.3394 426.732 80.3394C434.024 80.3394 440.629 78.2067 446.064 72.8404L438.083 63.8967ZM490.51 67.6118H465.398V60.3192H488.171V49.2426H465.398V42.3628H489.547V30.9423H451.983V79.1011H490.51V67.6118ZM522.85 79.1011H536.403V42.1564H550.507V30.9423H508.815V42.1564H522.85V79.1011ZM601.193 79.1699V31.0111H587.709V49.3114H570.372V31.0111H556.75V79.1699H570.372V60.9383H587.709V79.1699H601.193ZM649.839 67.6118H624.728V60.3192H647.5V49.2426H624.728V42.3628H648.876V30.9423H611.312V79.1011H649.839V67.6118Z" fill="white"/>
</g>
<g filter="url(#filter1_d_18_39)">
<path d="M80.8981 156.369H78.4522V158.815H80.8981V156.369ZM94.1648 156.369V158.815H96.6107V156.369H94.1648ZM94.1648 108.988H96.6107V106.542H94.1648V108.988ZM80.2212 108.988V106.542H79.0236L78.2892 107.488L80.2212 108.988ZM67.7667 125.03L65.8347 126.529L67.7667 129.018L69.6986 126.529L67.7667 125.03ZM55.3122 108.988L57.2441 107.488L56.5097 106.542H55.3122V108.988ZM41.3009 108.988V106.542H38.855V108.988H41.3009ZM41.3009 156.369H38.855V158.815H41.3009V156.369ZM54.5676 156.369V158.815H57.0135V156.369H54.5676ZM54.5676 128.211L56.4502 126.649L52.1217 121.43V128.211H54.5676ZM66.4129 142.493L64.5303 144.054L65.2639 144.939H66.4129V142.493ZM68.782 142.493V144.939H69.918L70.6508 144.071L68.782 142.493ZM80.8981 128.143H83.3439V121.455L79.0292 126.565L80.8981 128.143ZM80.8981 158.815H94.1648V153.923H80.8981V158.815ZM96.6107 156.369V108.988H91.719V156.369H96.6107ZM94.1648 106.542H80.2212V111.433H94.1648V106.542ZM78.2892 107.488L65.8347 123.53L69.6986 126.529L82.1531 110.487L78.2892 107.488ZM69.6986 123.53L57.2441 107.488L53.3802 110.487L65.8347 126.529L69.6986 123.53ZM55.3122 106.542H41.3009V111.433H55.3122V106.542ZM38.855 108.988V156.369H43.7467V108.988H38.855ZM41.3009 158.815H54.5676V153.923H41.3009V158.815ZM57.0135 156.369V128.211H52.1217V156.369H57.0135ZM52.685 129.772L64.5303 144.054L68.2955 140.931L56.4502 126.649L52.685 129.772ZM66.4129 144.939H68.782V140.047H66.4129V144.939ZM70.6508 144.071L82.7669 129.721L79.0292 126.565L66.9132 140.915L70.6508 144.071ZM78.4522 128.143V156.369H83.3439V128.143H78.4522ZM145.394 145.065H147.84V142.619H145.394V145.065ZM120.688 145.065H118.242V147.511H120.688V145.065ZM120.688 137.89V135.444H118.242V137.89H120.688ZM143.093 137.89V140.336H145.539V137.89H143.093ZM143.093 126.992H145.539V124.547H143.093V126.992ZM120.688 126.992H118.242V129.438H120.688V126.992ZM120.688 120.224V117.778H118.242V120.224H120.688ZM144.447 120.224V122.67H146.892V120.224H144.447ZM144.447 108.988H146.892V106.542H144.447V108.988ZM107.489 108.988V106.542H105.043V108.988H107.489ZM107.489 156.369H105.043V158.815H107.489V156.369ZM145.394 156.369V158.815H147.84V156.369H145.394ZM145.394 142.619H120.688V147.511H145.394V142.619ZM123.134 145.065V137.89H118.242V145.065H123.134ZM120.688 140.336H143.093V135.444H120.688V140.336ZM145.539 137.89V126.992H140.647V137.89H145.539ZM143.093 124.547H120.688V129.438H143.093V124.547ZM123.134 126.992V120.224H118.242V126.992H123.134ZM120.688 122.67H144.447V117.778H120.688V122.67ZM146.892 120.224V108.988H142.001V120.224H146.892ZM144.447 106.542H107.489V111.433H144.447V106.542ZM105.043 108.988V156.369H109.935V108.988H105.043ZM107.489 158.815H145.394V153.923H107.489V158.815ZM147.84 156.369V145.065H142.948V156.369H147.84ZM166.707 156.369H164.261V158.815H166.707V156.369ZM180.042 156.369V158.815H182.488V156.369H180.042ZM180.042 120.021V117.575H177.596V120.021H180.042ZM193.918 120.021V122.466H196.364V120.021H193.918ZM193.918 108.988H196.364V106.542H193.918V108.988ZM152.899 108.988V106.542H150.453V108.988H152.899ZM152.899 120.021H150.453V122.466H152.899V120.021ZM166.707 120.021H169.153V117.575H166.707V120.021ZM166.707 158.815H180.042V153.923H166.707V158.815ZM182.488 156.369V120.021H177.596V156.369H182.488ZM180.042 122.466H193.918V117.575H180.042V122.466ZM196.364 120.021V108.988H191.472V120.021H196.364ZM193.918 106.542H152.899V111.433H193.918V106.542ZM150.453 108.988V120.021H155.345V108.988H150.453ZM152.899 122.466H166.707V117.575H152.899V122.466ZM164.261 120.021V156.369H169.153V120.021H164.261ZM234.888 156.369L232.617 157.277L233.232 158.815H234.888V156.369ZM249.238 156.369V158.815H253.011L251.471 155.37L249.238 156.369ZM228.052 108.988L230.285 107.989L229.637 106.542H228.052V108.988ZM214.514 108.988V106.542H212.931L212.283 107.987L214.514 108.988ZM193.26 156.369L191.029 155.368L189.483 158.815H193.26V156.369ZM207.475 156.369V158.815H209.131L209.746 157.277L207.475 156.369ZM210.588 148.585V146.139H208.932L208.317 147.676L210.588 148.585ZM231.775 148.585L234.046 147.676L233.431 146.139H231.775V148.585ZM227.24 137.349V139.795H230.849L229.511 136.442L227.24 137.349ZM215.123 137.349L212.855 136.433L211.499 139.795H215.123V137.349ZM221.215 122.254L223.487 121.348L221.228 115.688L218.947 121.339L221.215 122.254ZM234.888 158.815H249.238V153.923H234.888V158.815ZM251.471 155.37L230.285 107.989L225.819 109.986L247.005 157.367L251.471 155.37ZM228.052 106.542H214.514V111.433H228.052V106.542ZM212.283 107.987L191.029 155.368L195.492 157.37L216.746 109.989L212.283 107.987ZM193.26 158.815H207.475V153.923H193.26V158.815ZM209.746 157.277L212.859 149.493L208.317 147.676L205.204 155.46L209.746 157.277ZM210.588 151.031H231.775V146.139H210.588V151.031ZM229.504 149.493L232.617 157.277L237.159 155.46L234.046 147.676L229.504 149.493ZM227.24 134.903H215.123V139.795H227.24V134.903ZM217.392 138.264L223.483 123.17L218.947 121.339L212.855 136.433L217.392 138.264ZM218.944 123.161L224.968 138.255L229.511 136.442L223.487 121.348L218.944 123.161ZM299.813 108.988L302.073 109.923L303.473 106.542H299.813V108.988ZM284.99 108.988V106.542H283.304L282.704 108.117L284.99 108.988ZM279.575 123.202L277.289 122.331L277.275 122.369L277.262 122.407L279.575 123.202ZM273.551 140.733L271.235 141.52L273.537 148.297L275.864 141.528L273.551 140.733ZM267.594 123.202L269.91 122.415L269.896 122.373L269.88 122.331L267.594 123.202ZM262.179 108.988L264.465 108.117L263.865 106.542H262.179V108.988ZM247.355 108.988V106.542H243.696L245.096 109.923L247.355 108.988ZM267.053 156.572L264.793 157.507L265.418 159.018H267.053V156.572ZM280.116 156.572V159.018H281.751L282.376 157.507L280.116 156.572ZM299.813 106.542H284.99V111.433H299.813V106.542ZM282.704 108.117L277.289 122.331L281.86 124.073L287.275 109.858L282.704 108.117ZM277.262 122.407L271.237 139.938L275.864 141.528L281.888 123.997L277.262 122.407ZM275.866 139.946L269.91 122.415L265.278 123.989L271.235 141.52L275.866 139.946ZM269.88 122.331L264.465 108.117L259.893 109.858L265.308 124.073L269.88 122.331ZM262.179 106.542H247.355V111.433H262.179V106.542ZM245.096 109.923L264.793 157.507L269.312 155.636L249.615 108.052L245.096 109.923ZM267.053 159.018H280.116V154.126H267.053V159.018ZM282.376 157.507L302.073 109.923L297.553 108.052L277.856 155.636L282.376 157.507ZM345.369 145.065H347.814V142.619H345.369V145.065ZM320.663 145.065H318.217V147.511H320.663V145.065ZM320.663 137.89V135.444H318.217V137.89H320.663ZM343.067 137.89V140.336H345.513V137.89H343.067ZM343.067 126.992H345.513V124.547H343.067V126.992ZM320.663 126.992H318.217V129.438H320.663V126.992ZM320.663 120.224V117.778H318.217V120.224H320.663ZM344.421 120.224V122.67H346.867V120.224H344.421ZM344.421 108.988H346.867V106.542H344.421V108.988ZM307.464 108.988V106.542H305.018V108.988H307.464ZM307.464 156.369H305.018V158.815H307.464V156.369ZM345.369 156.369V158.815H347.814V156.369H345.369ZM345.369 142.619H320.663V147.511H345.369V142.619ZM323.108 145.065V137.89H318.217V145.065H323.108ZM320.663 140.336H343.067V135.444H320.663V140.336ZM345.513 137.89V126.992H340.621V137.89H345.513ZM343.067 124.547H320.663V129.438H343.067V124.547ZM323.108 126.992V120.224H318.217V126.992H323.108ZM320.663 122.67H344.421V117.778H320.663V122.67ZM346.867 120.224V108.988H341.975V120.224H346.867ZM344.421 106.542H307.464V111.433H344.421V106.542ZM305.018 108.988V156.369H309.909V108.988H305.018ZM307.464 158.815H345.369V153.923H307.464V158.815ZM347.814 156.369V145.065H342.923V156.369H347.814ZM400.525 155.557H402.971V154.723L402.462 154.063L400.525 155.557ZM388.206 139.582L387.22 137.344L384.363 138.603L386.27 141.076L388.206 139.582ZM356.664 108.988V106.542H354.218V108.988H356.664ZM356.664 156.369H354.218V158.815H356.664V156.369ZM370.066 156.369V158.815H372.512V156.369H370.066ZM370.066 141.004V138.558H367.62V141.004H370.066ZM374.737 141.004L376.723 139.577L375.991 138.558H374.737V141.004ZM385.77 156.369L383.783 157.795L384.515 158.815H385.77V156.369ZM400.525 156.369V158.815H402.971V156.369H400.525ZM370.066 131.054H367.62V133.5H370.066V131.054ZM370.066 119.682V117.236H367.62V119.682H370.066ZM402.462 154.063L390.143 138.089L386.27 141.076L398.589 157.05L402.462 154.063ZM389.193 141.821C393.504 139.92 396.451 137.527 398.283 134.603C400.113 131.684 400.67 128.492 400.67 125.3H395.778C395.778 127.929 395.32 130.119 394.138 132.005C392.958 133.888 390.895 135.725 387.22 137.344L389.193 141.821ZM400.67 125.3C400.67 120.43 398.867 115.703 395.27 112.195C391.66 108.674 386.412 106.542 379.813 106.542V111.433C385.33 111.433 389.288 113.193 391.854 115.697C394.433 118.212 395.778 121.641 395.778 125.3H400.67ZM379.813 106.542H356.664V111.433H379.813V106.542ZM354.218 108.988V156.369H359.11V108.988H354.218ZM356.664 158.815H370.066V153.923H356.664V158.815ZM372.512 156.369V141.004H367.62V156.369H372.512ZM370.066 143.45H374.737V138.558H370.066V143.45ZM372.75 142.43L383.783 157.795L387.756 154.942L376.723 139.577L372.75 142.43ZM385.77 158.815H400.525V153.923H385.77V158.815ZM402.971 156.369V155.557H398.08V156.369H402.971ZM379.813 122.128C380.815 122.128 381.411 122.505 381.815 123.02C382.273 123.603 382.579 124.51 382.579 125.571H387.471C387.471 123.654 386.931 121.616 385.663 120C384.341 118.314 382.331 117.236 379.813 117.236V122.128ZM382.579 125.571C382.579 126.58 382.299 127.357 381.912 127.831C381.583 128.235 381.031 128.608 379.948 128.608V133.5C382.385 133.5 384.372 132.553 385.701 130.926C386.972 129.369 387.471 127.405 387.471 125.571H382.579ZM379.948 128.608H370.066V133.5H379.948V128.608ZM372.512 131.054V119.682H367.62V131.054H372.512ZM370.066 122.128H379.813V117.236H370.066V122.128ZM446.1 113.658L448.025 115.167L449.531 113.245L447.612 111.736L446.1 113.658ZM427.824 137.755L427.601 140.19L427.603 140.191L427.824 137.755ZM414.422 140.936L416.126 139.181L414.275 137.384L412.579 139.329L414.422 140.936ZM407.044 149.397L405.201 147.79L403.737 149.468L405.272 151.083L407.044 149.397ZM428.23 157.723L428.215 155.277L428.211 155.277L428.23 157.723ZM429.787 126.586L430.05 124.155L430.042 124.154L430.034 124.153L429.787 126.586ZM439.466 122.119L437.999 124.076L439.914 125.512L441.391 123.628L439.466 122.119ZM447.612 111.736C442.022 107.338 435.907 105.594 428.366 105.594V110.486C435.039 110.486 440.024 111.99 444.588 115.58L447.612 111.736ZM428.366 105.594C423.056 105.594 417.602 106.734 413.389 109.389C409.073 112.108 406.087 116.428 406.087 122.39H410.979C410.979 118.334 412.901 115.478 415.997 113.527C419.195 111.512 423.657 110.486 428.366 110.486V105.594ZM406.087 122.39C406.087 129.033 408.682 133.454 412.98 136.196C417.041 138.786 422.382 139.713 427.601 140.19L428.047 135.319C422.91 134.849 418.606 133.982 415.61 132.071C412.852 130.312 410.979 127.524 410.979 122.39H406.087ZM427.603 140.191C430.077 140.416 431.667 140.864 432.563 141.355C433.372 141.798 433.298 142.061 433.298 142.087H438.189C438.189 139.744 436.762 138.077 434.913 137.065C433.153 136.101 430.783 135.568 428.046 135.319L427.603 140.191ZM433.298 142.087C433.298 142.277 433.255 142.614 432.495 143.03C431.669 143.483 430.258 143.838 428.298 143.838V148.729C430.738 148.729 433.05 148.305 434.847 147.32C436.71 146.298 438.189 144.536 438.189 142.087H433.298ZM428.298 143.838C424.66 143.838 420.172 143.11 416.126 139.181L412.718 142.691C418.013 147.832 423.949 148.729 428.298 148.729V143.838ZM412.579 139.329L405.201 147.79L408.888 151.004L416.265 142.544L412.579 139.329ZM405.272 151.083C408.768 154.759 412.243 157.098 416.073 158.476C419.871 159.842 423.853 160.203 428.25 160.168L428.211 155.277C424.078 155.31 420.751 154.96 417.729 153.873C414.739 152.797 411.886 150.939 408.816 147.712L405.272 151.083ZM428.246 160.168C433.855 160.133 439.555 158.907 443.935 156.07C448.423 153.163 451.456 148.585 451.456 142.29H446.564C446.564 146.757 444.521 149.862 441.276 151.964C437.923 154.136 433.232 155.245 428.215 155.277L428.246 160.168ZM451.456 142.29C451.456 135.949 448.531 131.548 444.29 128.701C440.185 125.946 434.924 124.681 430.05 124.155L429.525 129.018C434.059 129.507 438.409 130.645 441.564 132.763C444.583 134.79 446.564 137.732 446.564 142.29H451.456ZM430.034 124.153C427.595 123.906 426.035 123.688 425.063 123.276C424.637 123.096 424.512 122.95 424.481 122.908C424.469 122.891 424.381 122.782 424.381 122.39H419.489C419.489 123.622 419.8 124.791 420.53 125.791C421.241 126.766 422.203 127.378 423.156 127.781C424.943 128.537 427.308 128.793 429.54 129.02L430.034 124.153ZM424.381 122.39C424.381 122.324 424.388 122.318 424.412 122.288C424.461 122.224 424.613 122.074 424.976 121.903C425.73 121.547 426.939 121.316 428.366 121.316V116.424C426.543 116.424 424.537 116.701 422.888 117.479C421.197 118.277 419.489 119.844 419.489 122.39H424.381ZM428.366 121.316C432.167 121.316 435.31 122.059 437.999 124.076L440.934 120.162C437.124 117.305 432.822 116.424 428.366 116.424V121.316ZM441.391 123.628L448.025 115.167L444.175 112.149L437.542 120.61L441.391 123.628ZM497.002 145.065H499.448V142.619H497.002V145.065ZM472.296 145.065H469.85V147.511H472.296V145.065ZM472.296 137.89V135.444H469.85V137.89H472.296ZM494.7 137.89V140.336H497.146V137.89H494.7ZM494.7 126.992H497.146V124.547H494.7V126.992ZM472.296 126.992H469.85V129.438H472.296V126.992ZM472.296 120.224V117.778H469.85V120.224H472.296ZM496.054 120.224V122.67H498.5V120.224H496.054ZM496.054 108.988H498.5V106.542H496.054V108.988ZM459.097 108.988V106.542H456.651V108.988H459.097ZM459.097 156.369H456.651V158.815H459.097V156.369ZM497.002 156.369V158.815H499.448V156.369H497.002ZM497.002 142.619H472.296V147.511H497.002V142.619ZM474.742 145.065V137.89H469.85V145.065H474.742ZM472.296 140.336H494.7V135.444H472.296V140.336ZM497.146 137.89V126.992H492.255V137.89H497.146ZM494.7 124.547H472.296V129.438H494.7V124.547ZM474.742 126.992V120.224H469.85V126.992H474.742ZM472.296 122.67H496.054V117.778H472.296V122.67ZM498.5 120.224V108.988H493.608V120.224H498.5ZM496.054 106.542H459.097V111.433H496.054V106.542ZM456.651 108.988V156.369H461.543V108.988H456.651ZM459.097 158.815H497.002V153.923H459.097V158.815ZM499.448 156.369V145.065H494.556V156.369H499.448Z" fill="#9F7FF3"/>
</g>
<defs>
<filter id="filter0_d_18_39" x="0.444511" y="0.491152" width="683.637" height="118.982" filterUnits="userSpaceOnUse" color-interpolation-filters="sRGB">
<feFlood flood-opacity="0" result="BackgroundImageFix"/>
<feColorMatrix in="SourceAlpha" type="matrix" values="0 0 0 0 0 0 0 0 0 0 0 0 0 0 0 0 0 0 127 0" result="hardAlpha"/>
<feOffset dy="4.89173"/>
<feGaussianBlur stdDeviation="17.1211"/>
<feComposite in2="hardAlpha" operator="out"/>
<feColorMatrix type="matrix" values="0 0 0 0 1 0 0 0 0 1 0 0 0 0 1 0 0 0 0.33 0"/>
<feBlend mode="normal" in2="BackgroundImageFix" result="effect1_dropShadow_18_39"/>
<feBlend mode="normal" in="SourceGraphic" in2="effect1_dropShadow_18_39" result="shape"/>
</filter>
<filter id="filter1_d_18_39" x="11.9505" y="83.5812" width="514.402" height="108.451" filterUnits="userSpaceOnUse" color-interpolation-filters="sRGB">
<feFlood flood-opacity="0" result="BackgroundImageFix"/>
<feColorMatrix in="SourceAlpha" type="matrix" values="0 0 0 0 0 0 0 0 0 0 0 0 0 0 0 0 0 0 127 0" result="hardAlpha"/>
<feOffset dy="4.89173"/>
<feGaussianBlur stdDeviation="14.6752"/>
<feComposite in2="hardAlpha" operator="out"/>
<feColorMatrix type="matrix" values="0 0 0 0 0.854206 0 0 0 0 0.8 0 0 0 0 1 0 0 0 0.8 0"/>
<feBlend mode="normal" in2="BackgroundImageFix" result="effect1_dropShadow_18_39"/>
<feBlend mode="normal" in="SourceGraphic" in2="effect1_dropShadow_18_39" result="shape"/>
</filter>
</defs>
</svg>
